{
  "accessors": [
    {
      "bufferView": 2,
      "componentType": 5126,
      "count": 2273,
      "max": [
        44.62677001953125,
        153.45068359375,
        -5.050664901733398
      ],
      "min": [
        25.309497833251953,
        113.8580551147461,
        -24.7744140625
      ],
      "type": "VEC3"
    },
    {
      "bufferView": 2,
      "byteOffset": 27276,
      "componentType": 5126,
      "count": 2273,
      "max": [
        0.9994306564331055,
        1.0,
        0.9996441006660461
      ],
      "min": [
        -0.9994308948516846,
        -1.0,
        -0.9994310140609741
      ],
      "type": "VEC3"
    },
    {
      "bufferView": 3,
      "componentType": 5126,
      "count": 2273,
      "max": [
        0.9964244961738586,
        0.9996837973594666,
        0.9988304376602173,
        1.0
      ],
      "min": [
        -0.9962161183357239,
        -1.0,
        -0.9990274310112,
        -1.0
      ],
      "type": "VEC4"
    },
    {
      "bufferView": 1,
      "componentType": 5126,
      "count": 2273,
      "max": [
        0.9896489977836609,
        0.9889979958534241
      ],
      "min": [
        0.001883000019006431,
        0.013642000034451485
      ],
      "type": "VEC2"
    },
    {
      "bufferView": 0,
      "componentType": 5125,
      "count": 7998,
      "type": "SCALAR"
    },
    {
      "bufferView": 2,
      "byteOffset": 54552,
      "componentType": 5126,
      "count": 1719,
      "max": [
        42.4171142578125,
        102.26605224609375,
        26.534332275390625
      ],
      "min": [
        -13.367446899414063,
        79.47019958496094,
        -17.692102432250977
      ],
      "type": "VEC3"
    },
    {
      "bufferView": 2,
      "byteOffset": 75180,
      "componentType": 5126,
      "count": 1719,
      "max": [
        1.0,
        1.0,
        0.9999927878379822
      ],
      "min": [
        -1.0,
        -1.0,
        -0.9999964833259583
      ],
      "type": "VEC3"
    },
    {
      "bufferView": 3,
      "byteOffset": 36368,
      "componentType": 5126,
      "count": 1719,
      "max": [
        1.0,
        1.0,
        0.9999991059303284,
        1.0
      ],
      "min": [
        -1.0,
        -1.0,
        -0.9999991059303284,
        1.0
      ],
      "type": "VEC4"
    },
    {
      "bufferView": 1,
      "byteOffset": 18184,
      "componentType": 5126,
      "count": 1719,
      "max": [
        0.6073780059814453,
        0.9807590246200562
      ],
      "min": [
        0.020267000421881676,
        0.013790000230073929
      ],
      "type": "VEC2"
    },
    {
      "bufferView": 0,
      "byteOffset": 31992,
      "componentType": 5125,
      "count": 5220,
      "type": "SCALAR"
    },
    {
      "bufferView": 2,
      "byteOffset": 95808,
      "componentType": 5126,
      "count": 2382,
      "max": [
        57.53450012207031,
        114.27235412597656,
        35.07299041748047
      ],
      "min": [
        -57.53450012207031,
        -6.000000212225132e-06,
        -29.0516414642334
      ],
      "type": "VEC3"
    },
    {
      "bufferView": 2,
      "byteOffset": 124392,
      "componentType": 5126,
      "count": 2382,
      "max": [
        1.0,
        1.0,
        1.0
      ],
      "min": [
        -1.0,
        -1.0,
        -1.0
      ],
      "type": "VEC3"
    },
    {
      "bufferView": 3,
      "byteOffset": 63872,
      "componentType": 5126,
      "count": 2382,
      "max": [
        1.0,
        1.0,
        1.0,
        1.0
      ],
      "min": [
        -1.0,
        -1.0,
        -1.0,
        1.0
      ],
      "type": "VEC4"
    },
    {
      "bufferView": 1,
      "byteOffset": 31936,
      "componentType": 5126,
      "count": 2382,
      "max": [
        0.9825059771537781,
        0.9889349937438965
      ],
      "min": [
        0.015440000221133232,
        0.004753999877721071
      ],
      "type": "VEC2"
    },
    {
      "bufferView": 0,
      "byteOffset": 52872,
      "componentType": 5125,
      "count": 6228,
      "type": "SCALAR"
    }
  ],
  "asset": {
    "extras": {
      "author": "Pixel Life (https://sketchfab.com/pixellife)",
      "license": "CC-BY-4.0 (http://creativecommons.org/licenses/by/4.0/)",
      "source": "https://sketchfab.com/3d-models/writing-table-game-ready-asset-2172497f855e4028a0ea9da1136d6c0d",
      "title": "Writing Table (game ready asset)"
    },
    "generator": "Sketchfab-15.46.0",
    "version": "2.0"
  },
  "bufferViews": [
    {
      "buffer": 0,
      "byteLength": 77784,
      "name": "floatBufferViews",
      "target": 34963
    },
    {
      "buffer": 0,
      "byteLength": 50992,
      "byteOffset": 77784,
      "byteStride": 8,
      "name": "floatBufferViews",
      "target": 34962
    },
    {
      "buffer": 0,
      "byteLength": 152976,
      "byteOffset": 128776,
      "byteStride": 12,
      "name": "floatBufferViews",
      "target": 34962
    },
    {
      "buffer": 0,
      "byteLength": 101984,
      "byteOffset": 281752,
      "byteStride": 16,
      "name": "floatBufferViews",
      "target": 34962
    }
  ],
  "buffers": [
    {
      "byteLength": 383736,
      "uri": "scene.bin"
    }
  ],
  "images": [
    {
      "uri": "textures/WritingDesk_baseColor.jpeg"
    },
    {
      "uri": "textures/WritingDesk_metallicRoughness.png"
    },
    {
      "uri": "textures/WritingDesk_normal.png"
    },
    {
      "uri": "textures/Book_baseColor.jpeg"
    },
    {
      "uri": "textures/Book_metallicRoughness.png"
    },
    {
      "uri": "textures/Book_normal.png"
    },
    {
      "uri": "textures/CandleHolder_baseColor.jpeg"
    },
    {
      "uri": "textures/CandleHolder_metallicRoughness.png"
    },
    {
      "uri": "textures/CandleHolder_normal.png"
    }
  ],
  "materials": [
    {
      "doubleSided": true,
      "name": "WritingDesk",
      "normalTexture": {
        "index": 2
      },
      "occlusionTexture": {
        "index": 1
      },
      "pbrMetallicRoughness": {
        "baseColorTexture": {
          "index": 0
        },
        "metallicRoughnessTexture": {
          "index": 1
        }
      }
    },
    {
      "doubleSided": true,
      "name": "Book",
      "normalTexture": {
        "index": 5
      },
      "occlusionTexture": {
        "index": 4
      },
      "pbrMetallicRoughness": {
        "baseColorTexture": {
          "index": 3
        },
        "metallicRoughnessTexture": {
          "index": 4
        }
      }
    },
    {
      "doubleSided": true,
      "name": "CandleHolder",
      "normalTexture": {
        "index": 8
      },
      "occlusionTexture": {
        "index": 7
      },
      "pbrMetallicRoughness": {
        "baseColorTexture": {
          "index": 6
        },
        "metallicRoughnessTexture": {
          "index": 7
        }
      }
    }
  ],
  "meshes": [
    {
      "name": "defaultMaterial",
      "primitives": [
        {
          "attributes": {
            "NORMAL": 1,
            "POSITION": 0,
            "TANGENT": 2,
            "TEXCOORD_0": 3
          },
          "indices": 4,
          "material": 2,
          "mode": 4
        }
      ]
    },
    {
      "name": "defaultMaterial",
      "primitives": [
        {
          "attributes": {
            "NORMAL": 6,
            "POSITION": 5,
            "TANGENT": 7,
            "TEXCOORD_0": 8
          },
          "indices": 9,
          "material": 1,
          "mode": 4
        }
      ]
    },
    {
      "name": "defaultMaterial",
      "primitives": [
        {
          "attributes": {
            "NORMAL": 11,
            "POSITION": 10,
            "TANGENT": 12,
            "TEXCOORD_0": 13
          },
          "indices": 14,
          "material": 0,
          "mode": 4
        }
      ]
    }
  ],
  "nodes": [
    {
      "children": [
        1
      ],
      "matrix": [
        1.0,
        0.0,
        0.0,
        0.0,
        0.0,
        2.220446049250313e-16,
        -1.0,
        0.0,
        0.0,
        1.0,
        2.220446049250313e-16,
        0.0,
        0.0,
        0.0,
        0.0,
        1.0
      ],
      "name": "Sketchfab_model"
    },
    {
      "children": [
        2,
        4,
        6
      ],
      "matrix": [
        1.0,
        0.0,
        0.0,
        0.0,
        0.0,
        -4.371139006309477e-08,
        0.999999999999999,
        0.0,
        0.0,
        -0.999999999999999,
        -4.371139006309477e-08,
        0.0,
        0.0,
        0.0,
        0.0,
        1.0
      ],
      "name": "Collada visual scene group"
    },
    {
      "children": [
        3
      ],
      "matrix": [
        1.0,
        0.0,
        0.0,
        0.0,
        0.0,
        1.0,
        0.0,
        0.0,
        0.0,
        0.0,
        1.0,
        0.0,
        -18.51576,
        0.0,
        0.0,
        1.0
      ],
      "name": "CandleHolder"
    },
    {
      "mesh": 0,
      "name": "defaultMaterial"
    },
    {
      "children": [
        5
      ],
      "name": "Book"
    },
    {
      "mesh": 1,
      "name": "defaultMaterial"
    },
    {
      "children": [
        7
      ],
      "name": "WritingDesk"
    },
    {
      "mesh": 2,
      "name": "defaultMaterial"
    }
  ],
  "samplers": [
    {
      "magFilter": 9729,
      "minFilter": 9987,
      "wrapS": 10497,
      "wrapT": 10497
    }
  ],
  "scene": 0,
  "scenes": [
    {
      "name": "Sketchfab_Scene",
      "nodes": [
        0
      ]
    }
  ],
  "textures": [
    {
      "sampler": 0,
      "source": 0
    },
    {
      "sampler": 0,
      "source": 1
    },
    {
      "sampler": 0,
      "source": 2
    },
    {
      "sampler": 0,
      "source": 3
    },
    {
      "sampler": 0,
      "source": 4
    },
    {
      "sampler": 0,
      "source": 5
    },
    {
      "sampler": 0,
      "source": 6
    },
    {
      "sampler": 0,
      "source": 7
    },
    {
      "sampler": 0,
      "source": 8
    }
  ]
}
