{
  "accessors": [
    {
      "bufferView": 2,
      "componentType": 5126,
      "count": 24,
      "max": [
        1.3184839487075806,
        2.950450897216797,
        0.27437999844551086
      ],
      "min": [
        -1.3184839487075806,
        -2.950450897216797,
        -0.27437999844551086
      ],
      "type": "VEC3"
    },
    {
      "bufferView": 2,
      "byteOffset": 288,
      "componentType": 5126,
      "count": 24,
      "max": [
        1.0,
        1.0,
        1.0
      ],
      "min": [
        -1.0,
        -1.0,
        -1.0
      ],
      "type": "VEC3"
    },
    {
      "bufferView": 3,
      "componentType": 5126,
      "count": 24,
      "max": [
        1.0,
        0.0,
        1.0,
        1.0
      ],
      "min": [
        -1.0,
        0.0,
        -1.0,
        1.0
      ],
      "type": "VEC4"
    },
    {
      "bufferView": 1,
      "componentType": 5126,
      "count": 24,
      "max": [
        0.7337629795074463,
        0.9957150220870972
      ],
      "min": [
        0.0042849997989833355,
        0.0042849997989833355
      ],
      "type": "VEC2"
    },
    {
      "bufferView": 0,
      "componentType": 5125,
      "count": 36,
      "type": "SCALAR"
    },
    {
      "bufferView": 2,
      "byteOffset": 576,
      "componentType": 5126,
      "count": 88,
      "max": [
        0.09903600066900253,
        0.09903699904680252,
        0.875245988368988
      ],
      "min": [
        -0.09903600066900253,
        -0.09903600066900253,
        -0.875245988368988
      ],
      "type": "VEC3"
    },
    {
      "bufferView": 2,
      "byteOffset": 1632,
      "componentType": 5126,
      "count": 88,
      "max": [
        1.0,
        1.0,
        1.0
      ],
      "min": [
        -1.0,
        -1.0,
        -1.0
      ],
      "type": "VEC3"
    },
    {
      "bufferView": 3,
      "byteOffset": 384,
      "componentType": 5126,
      "count": 88,
      "max": [
        1.0,
        1.0,
        0.0,
        1.0
      ],
      "min": [
        -1.0,
        -1.0,
        0.0,
        1.0
      ],
      "type": "VEC4"
    },
    {
      "bufferView": 1,
      "byteOffset": 192,
      "componentType": 5126,
      "count": 88,
      "max": [
        0.8349609971046448,
        0.8010169863700867
      ],
      "min": [
        0.029583999887108803,
        0.4976930022239685
      ],
      "type": "VEC2"
    },
    {
      "bufferView": 0,
      "byteOffset": 144,
      "componentType": 5125,
      "count": 132,
      "type": "SCALAR"
    },
    {
      "bufferView": 2,
      "byteOffset": 2688,
      "componentType": 5126,
      "count": 88,
      "max": [
        0.09903600066900253,
        0.09903699904680252,
        1.2049239873886108
      ],
      "min": [
        -0.09903600066900253,
        -0.09903699904680252,
        -1.2049239873886108
      ],
      "type": "VEC3"
    },
    {
      "bufferView": 2,
      "byteOffset": 3744,
      "componentType": 5126,
      "count": 88,
      "max": [
        1.0,
        1.0,
        1.0
      ],
      "min": [
        -1.0,
        -1.0,
        -1.0
      ],
      "type": "VEC3"
    },
    {
      "bufferView": 3,
      "byteOffset": 1792,
      "componentType": 5126,
      "count": 88,
      "max": [
        1.0,
        1.0,
        0.0,
        1.0
      ],
      "min": [
        -1.0,
        -1.0,
        0.0,
        1.0
      ],
      "type": "VEC4"
    },
    {
      "bufferView": 1,
      "byteOffset": 896,
      "componentType": 5126,
      "count": 88,
      "max": [
        0.44051098823547363,
        0.7777420282363892
      ],
      "min": [
        0.0042849997989833355,
        0.5112760066986084
      ],
      "type": "VEC2"
    },
    {
      "bufferView": 0,
      "byteOffset": 672,
      "componentType": 5125,
      "count": 132,
      "type": "SCALAR"
    },
    {
      "bufferView": 2,
      "byteOffset": 4800,
      "componentType": 5126,
      "count": 512,
      "max": [
        1.2409249544143677,
        0.06541100144386292,
        0.33061501383781433
      ],
      "min": [
        -1.2409249544143677,
        -0.06541100144386292,
        -0.33061501383781433
      ],
      "type": "VEC3"
    },
    {
      "bufferView": 2,
      "byteOffset": 10944,
      "componentType": 5126,
      "count": 512,
      "max": [
        1.0,
        1.0,
        1.0
      ],
      "min": [
        -1.0,
        -1.0,
        -1.0
      ],
      "type": "VEC3"
    },
    {
      "bufferView": 3,
      "byteOffset": 3200,
      "componentType": 5126,
      "count": 512,
      "max": [
        9.999999974752427e-07,
        1.0,
        5.3613181080436334e-05,
        1.0
      ],
      "min": [
        -1.0000001111620804e-06,
        -1.0,
        -1.0,
        1.0
      ],
      "type": "VEC4"
    },
    {
      "bufferView": 1,
      "byteOffset": 1600,
      "componentType": 5126,
      "count": 512,
      "max": [
        0.718080997467041,
        0.7919780015945435
      ],
      "min": [
        0.049235999584198,
        0.49729299545288086
      ],
      "type": "VEC2"
    },
    {
      "bufferView": 0,
      "byteOffset": 1200,
      "componentType": 5125,
      "count": 1380,
      "type": "SCALAR"
    },
    {
      "bufferView": 2,
      "byteOffset": 17088,
      "componentType": 5126,
      "count": 8537,
      "max": [
        0.9402040243148804,
        0.5306739807128906,
        0.2629919946193695
      ],
      "min": [
        -0.9402040243148804,
        -0.5306730270385742,
        -0.2629919946193695
      ],
      "type": "VEC3"
    },
    {
      "bufferView": 2,
      "byteOffset": 119532,
      "componentType": 5126,
      "count": 8537,
      "max": [
        0.9999659061431885,
        0.9999485015869141,
        0.9996896386146545
      ],
      "min": [
        -0.9997481107711792,
        -0.9999405145645142,
        -1.0
      ],
      "type": "VEC3"
    },
    {
      "bufferView": 3,
      "byteOffset": 11392,
      "componentType": 5126,
      "count": 8537,
      "max": [
        0.7515422105789185,
        0.8116534352302551,
        0.9999840259552002,
        1.0
      ],
      "min": [
        -0.9999998211860657,
        -0.9999915957450867,
        -0.9999779462814331,
        1.0
      ],
      "type": "VEC4"
    },
    {
      "bufferView": 1,
      "byteOffset": 5696,
      "componentType": 5126,
      "count": 8537,
      "max": [
        0.9990419745445251,
        0.6529110074043274
      ],
      "min": [
        0.000957000011112541,
        0.000957000011112541
      ],
      "type": "VEC2"
    },
    {
      "bufferView": 0,
      "byteOffset": 6720,
      "componentType": 5125,
      "count": 49170,
      "type": "SCALAR"
    },
    {
      "bufferView": 2,
      "byteOffset": 221976,
      "componentType": 5126,
      "count": 3412,
      "max": [
        1.315032958984375,
        2.931386947631836,
        0.4213950037956238
      ],
      "min": [
        -1.315032958984375,
        -2.931386947631836,
        -0.4213959872722626
      ],
      "type": "VEC3"
    },
    {
      "bufferView": 2,
      "byteOffset": 262920,
      "componentType": 5126,
      "count": 3412,
      "max": [
        0.9999964833259583,
        0.9999949932098389,
        1.0
      ],
      "min": [
        -0.9999972581863403,
        -0.9998804926872253,
        -1.0
      ],
      "type": "VEC3"
    },
    {
      "bufferView": 3,
      "byteOffset": 147984,
      "componentType": 5126,
      "count": 3412,
      "max": [
        0.8893130421638489,
        0.8613995909690857,
        1.0,
        1.0
      ],
      "min": [
        -1.0,
        -0.8608039617538452,
        -0.9999998807907104,
        1.0
      ],
      "type": "VEC4"
    },
    {
      "bufferView": 1,
      "byteOffset": 73992,
      "componentType": 5126,
      "count": 3412,
      "max": [
        0.9636750221252441,
        0.9890009760856628
      ],
      "min": [
        0.0042849997989833355,
        0.0042849997989833355
      ],
      "type": "VEC2"
    },
    {
      "bufferView": 0,
      "byteOffset": 203400,
      "componentType": 5125,
      "count": 16896,
      "type": "SCALAR"
    },
    {
      "bufferView": 2,
      "byteOffset": 303864,
      "componentType": 5126,
      "count": 8497,
      "max": [
        2.0563390254974365,
        2.69507098197937,
        0.8865200281143188
      ],
      "min": [
        -2.0563390254974365,
        -2.69507098197937,
        -0.8865190148353577
      ],
      "type": "VEC3"
    },
    {
      "bufferView": 2,
      "byteOffset": 405828,
      "componentType": 5126,
      "count": 8497,
      "max": [
        0.9999995827674866,
        0.9840598702430725,
        1.0
      ],
      "min": [
        -0.9999814629554749,
        -0.999991774559021,
        -0.851585865020752
      ],
      "type": "VEC3"
    },
    {
      "bufferView": 3,
      "byteOffset": 202576,
      "componentType": 5126,
      "count": 8497,
      "max": [
        0.9062215089797974,
        0.9999977946281433,
        0.9845515489578247,
        1.0
      ],
      "min": [
        -0.6540935039520264,
        -0.49488383531570435,
        -0.5344600677490234,
        1.0
      ],
      "type": "VEC4"
    },
    {
      "bufferView": 1,
      "byteOffset": 101288,
      "componentType": 5126,
      "count": 8497,
      "max": [
        0.8647310137748718,
        0.9990710020065308
      ],
      "min": [
        0.0009289999725297093,
        0.0009289999725297093
      ],
      "type": "VEC2"
    },
    {
      "bufferView": 0,
      "byteOffset": 270984,
      "componentType": 5125,
      "count": 49884,
      "type": "SCALAR"
    },
    {
      "bufferView": 2,
      "byteOffset": 507792,
      "componentType": 5126,
      "count": 88,
      "max": [
        0.09903600066900253,
        0.09903699904680252,
        0.875245988368988
      ],
      "min": [
        -0.09903699904680252,
        -0.09903600066900253,
        -0.875245988368988
      ],
      "type": "VEC3"
    },
    {
      "bufferView": 2,
      "byteOffset": 508848,
      "componentType": 5126,
      "count": 88,
      "max": [
        1.0,
        1.0,
        1.0
      ],
      "min": [
        -1.0,
        -1.0,
        -1.0
      ],
      "type": "VEC3"
    },
    {
      "bufferView": 3,
      "byteOffset": 338528,
      "componentType": 5126,
      "count": 88,
      "max": [
        1.0,
        1.0,
        0.0,
        1.0
      ],
      "min": [
        -1.0,
        -1.0,
        0.0,
        1.0
      ],
      "type": "VEC4"
    },
    {
      "bufferView": 1,
      "byteOffset": 169264,
      "componentType": 5126,
      "count": 88,
      "max": [
        0.860260009765625,
        0.8564810156822205
      ],
      "min": [
        0.11120700091123581,
        0.4976930022239685
      ],
      "type": "VEC2"
    },
    {
      "bufferView": 0,
      "byteOffset": 470520,
      "componentType": 5125,
      "count": 132,
      "type": "SCALAR"
    },
    {
      "bufferView": 2,
      "byteOffset": 509904,
      "componentType": 5126,
      "count": 88,
      "max": [
        0.09903600066900253,
        0.09903699904680252,
        1.2049239873886108
      ],
      "min": [
        -0.09903699904680252,
        -0.09903699904680252,
        -1.2049239873886108
      ],
      "type": "VEC3"
    },
    {
      "bufferView": 2,
      "byteOffset": 510960,
      "componentType": 5126,
      "count": 88,
      "max": [
        1.0,
        1.0,
        1.0
      ],
      "min": [
        -1.0,
        -1.0,
        -1.0
      ],
      "type": "VEC3"
    },
    {
      "bufferView": 3,
      "byteOffset": 339936,
      "componentType": 5126,
      "count": 88,
      "max": [
        1.0,
        1.0,
        0.0,
        1.0
      ],
      "min": [
        -1.0,
        -1.0,
        0.0,
        1.0
      ],
      "type": "VEC4"
    },
    {
      "bufferView": 1,
      "byteOffset": 169968,
      "componentType": 5126,
      "count": 88,
      "max": [
        0.7843620181083679,
        0.7777420282363892
      ],
      "min": [
        0.0042849997989833355,
        0.49729299545288086
      ],
      "type": "VEC2"
    },
    {
      "bufferView": 0,
      "byteOffset": 471048,
      "componentType": 5125,
      "count": 132,
      "type": "SCALAR"
    }
  ],
  "asset": {
    "extras": {
      "author": "lucaboechat (https://sketchfab.com/lucaboechat)",
      "license": "CC-BY-4.0 (http://creativecommons.org/licenses/by/4.0/)",
      "source": "https://sketchfab.com/3d-models/messy-bed-aebc9bae5a4d459494d1e5de76658d5a",
      "title": "Messy Bed"
    },
    "generator": "Sketchfab-15.27.0",
    "version": "2.0"
  },
  "bufferViews": [
    {
      "buffer": 0,
      "byteLength": 471576,
      "name": "floatBufferViews",
      "target": 34963
    },
    {
      "buffer": 0,
      "byteLength": 170672,
      "byteOffset": 471576,
      "byteStride": 8,
      "name": "floatBufferViews",
      "target": 34962
    },
    {
      "buffer": 0,
      "byteLength": 512016,
      "byteOffset": 642248,
      "byteStride": 12,
      "name": "floatBufferViews",
      "target": 34962
    },
    {
      "buffer": 0,
      "byteLength": 341344,
      "byteOffset": 1154264,
      "byteStride": 16,
      "name": "floatBufferViews",
      "target": 34962
    }
  ],
  "buffers": [
    {
      "byteLength": 1495608,
      "uri": "scene.bin"
    }
  ],
  "images": [
    {
      "uri": "textures/Bed_Mat_baseColor.jpeg"
    },
    {
      "uri": "textures/Bed_Mat_metallicRoughness.png"
    },
    {
      "uri": "textures/Bed_Mat_normal.png"
    },
    {
      "uri": "textures/Pillow_Mat_baseColor.jpeg"
    },
    {
      "uri": "textures/Pillow_Mat_metallicRoughness.png"
    },
    {
      "uri": "textures/Pillow_Mat_normal.png"
    },
    {
      "uri": "textures/Blanket_Mat_baseColor.jpeg"
    },
    {
      "uri": "textures/Blanket_Mat_metallicRoughness.png"
    },
    {
      "uri": "textures/Blanket_Mat_normal.png"
    }
  ],
  "materials": [
    {
      "doubleSided": true,
      "name": "Bed_Mat",
      "normalTexture": {
        "index": 2
      },
      "occlusionTexture": {
        "index": 1
      },
      "pbrMetallicRoughness": {
        "baseColorTexture": {
          "index": 0
        },
        "metallicRoughnessTexture": {
          "index": 1
        }
      }
    },
    {
      "doubleSided": true,
      "name": "Pillow_Mat",
      "normalTexture": {
        "index": 5
      },
      "occlusionTexture": {
        "index": 4
      },
      "pbrMetallicRoughness": {
        "baseColorTexture": {
          "index": 3
        },
        "metallicRoughnessTexture": {
          "index": 4
        }
      }
    },
    {
      "doubleSided": true,
      "name": "Blanket_Mat",
      "normalTexture": {
        "index": 8
      },
      "occlusionTexture": {
        "index": 7
      },
      "pbrMetallicRoughness": {
        "baseColorTexture": {
          "index": 6
        },
        "metallicRoughnessTexture": {
          "index": 7
        }
      }
    }
  ],
  "meshes": [
    {
      "name": "defaultMaterial",
      "primitives": [
        {
          "attributes": {
            "NORMAL": 1,
            "POSITION": 0,
            "TANGENT": 2,
            "TEXCOORD_0": 3
          },
          "indices": 4,
          "material": 0,
          "mode": 4
        }
      ]
    },
    {
      "name": "defaultMaterial",
      "primitives": [
        {
          "attributes": {
            "NORMAL": 6,
            "POSITION": 5,
            "TANGENT": 7,
            "TEXCOORD_0": 8
          },
          "indices": 9,
          "material": 0,
          "mode": 4
        }
      ]
    },
    {
      "name": "defaultMaterial",
      "primitives": [
        {
          "attributes": {
            "NORMAL": 11,
            "POSITION": 10,
            "TANGENT": 12,
            "TEXCOORD_0": 13
          },
          "indices": 14,
          "material": 0,
          "mode": 4
        }
      ]
    },
    {
      "name": "defaultMaterial",
      "primitives": [
        {
          "attributes": {
            "NORMAL": 16,
            "POSITION": 15,
            "TANGENT": 17,
            "TEXCOORD_0": 18
          },
          "indices": 19,
          "material": 0,
          "mode": 4
        }
      ]
    },
    {
      "name": "defaultMaterial",
      "primitives": [
        {
          "attributes": {
            "NORMAL": 21,
            "POSITION": 20,
            "TANGENT": 22,
            "TEXCOORD_0": 23
          },
          "indices": 24,
          "material": 1,
          "mode": 4
        }
      ]
    },
    {
      "name": "defaultMaterial",
      "primitives": [
        {
          "attributes": {
            "NORMAL": 26,
            "POSITION": 25,
            "TANGENT": 27,
            "TEXCOORD_0": 28
          },
          "indices": 29,
          "material": 0,
          "mode": 4
        }
      ]
    },
    {
      "name": "defaultMaterial",
      "primitives": [
        {
          "attributes": {
            "NORMAL": 31,
            "POSITION": 30,
            "TANGENT": 32,
            "TEXCOORD_0": 33
          },
          "indices": 34,
          "material": 2,
          "mode": 4
        }
      ]
    },
    {
      "name": "defaultMaterial",
      "primitives": [
        {
          "attributes": {
            "NORMAL": 36,
            "POSITION": 35,
            "TANGENT": 37,
            "TEXCOORD_0": 38
          },
          "indices": 39,
          "material": 0,
          "mode": 4
        }
      ]
    },
    {
      "name": "defaultMaterial",
      "primitives": [
        {
          "attributes": {
            "NORMAL": 41,
            "POSITION": 40,
            "TANGENT": 42,
            "TEXCOORD_0": 43
          },
          "indices": 44,
          "material": 0,
          "mode": 4
        }
      ]
    }
  ],
  "nodes": [
    {
      "children": [
        1
      ],
      "matrix": [
        1.0,
        0.0,
        0.0,
        0.0,
        0.0,
        2.220446049250313e-16,
        -1.0,
        0.0,
        0.0,
        1.0,
        2.220446049250313e-16,
        0.0,
        0.0,
        0.0,
        0.0,
        1.0
      ],
      "name": "Sketchfab_model"
    },
    {
      "children": [
        2
      ],
      "matrix": [
        1.0,
        0.0,
        0.0,
        0.0,
        0.0,
        -4.371139006309477e-08,
        0.999999999999999,
        0.0,
        0.0,
        -0.999999999999999,
        -4.371139006309477e-08,
        0.0,
        0.0,
        0.0,
        0.0,
        1.0
      ],
      "name": "Collada visual scene group"
    },
    {
      "children": [
        3,
        5,
        7,
        9,
        11,
        13,
        15,
        17,
        19
      ],
      "matrix": [
        100.0,
        0.0,
        0.0,
        0.0,
        0.0,
        -1.6e-05,
        -100.0,
        0.0,
        0.0,
        100.0,
        -1.6e-05,
        0.0,
        -347.486359,
        176.92421,
        -214.514709,
        1.0
      ],
      "name": "Bed"
    },
    {
      "children": [
        4
      ],
      "matrix": [
        1.0,
        0.0,
        0.0,
        0.0,
        0.0,
        1.0,
        0.0,
        0.0,
        0.0,
        0.0,
        1.0,
        0.0,
        -0.065977,
        -0.380452,
        -0.895383,
        1.0
      ],
      "name": "Bed"
    },
    {
      "mesh": 0,
      "name": "defaultMaterial"
    },
    {
      "children": [
        6
      ],
      "matrix": [
        1.0,
        0.0,
        0.0,
        0.0,
        0.0,
        1.0,
        0.0,
        0.0,
        0.0,
        0.0,
        1.0,
        0.0,
        -1.370224,
        -3.314679,
        -0.906243,
        1.0
      ],
      "name": "BedLeg.001"
    },
    {
      "mesh": 1,
      "name": "defaultMaterial"
    },
    {
      "children": [
        8
      ],
      "matrix": [
        1.0,
        0.0,
        0.0,
        0.0,
        0.0,
        1.0,
        0.0,
        0.0,
        0.0,
        0.0,
        1.0,
        0.0,
        -1.370224,
        2.619508,
        -0.576565,
        1.0
      ],
      "name": "BedLeg.002"
    },
    {
      "mesh": 2,
      "name": "defaultMaterial"
    },
    {
      "children": [
        10
      ],
      "matrix": [
        1.0,
        0.0,
        0.0,
        0.0,
        0.0,
        1.0,
        0.0,
        0.0,
        0.0,
        0.0,
        1.0,
        0.0,
        -0.065977,
        2.620687,
        -0.039316,
        1.0
      ],
      "name": "Bed"
    },
    {
      "mesh": 3,
      "name": "defaultMaterial"
    },
    {
      "children": [
        12
      ],
      "matrix": [
        1.0,
        0.0,
        0.0,
        0.0,
        0.0,
        1.0,
        0.0,
        0.0,
        0.0,
        0.0,
        1.0,
        0.0,
        -0.095907,
        1.712673,
        -0.090916,
        1.0
      ],
      "name": "Pillow"
    },
    {
      "mesh": 4,
      "name": "defaultMaterial"
    },
    {
      "children": [
        14
      ],
      "matrix": [
        1.0,
        0.0,
        0.0,
        0.0,
        0.0,
        1.0,
        0.0,
        0.0,
        0.0,
        0.0,
        1.0,
        0.0,
        -0.065893,
        -0.380561,
        -0.646885,
        1.0
      ],
      "name": "Matress.001"
    },
    {
      "mesh": 5,
      "name": "defaultMaterial"
    },
    {
      "children": [
        16
      ],
      "matrix": [
        1.0,
        0.0,
        0.0,
        0.0,
        0.0,
        1.0,
        0.0,
        0.0,
        0.0,
        0.0,
        1.0,
        0.0,
        0.557657,
        -2.182005,
        -0.876021,
        1.0
      ],
      "name": "Blanket"
    },
    {
      "mesh": 6,
      "name": "defaultMaterial"
    },
    {
      "children": [
        18
      ],
      "matrix": [
        1.0,
        0.0,
        0.0,
        0.0,
        0.0,
        1.0,
        0.0,
        0.0,
        0.0,
        0.0,
        1.0,
        0.0,
        1.238272,
        -3.314679,
        -0.906243,
        1.0
      ],
      "name": "BedLeg.003"
    },
    {
      "mesh": 7,
      "name": "defaultMaterial"
    },
    {
      "children": [
        20
      ],
      "matrix": [
        1.0,
        0.0,
        0.0,
        0.0,
        0.0,
        1.0,
        0.0,
        0.0,
        0.0,
        0.0,
        1.0,
        0.0,
        1.238272,
        2.619508,
        -0.576565,
        1.0
      ],
      "name": "BedLeg"
    },
    {
      "mesh": 8,
      "name": "defaultMaterial"
    }
  ],
  "samplers": [
    {
      "magFilter": 9729,
      "minFilter": 9987,
      "wrapS": 10497,
      "wrapT": 10497
    }
  ],
  "scene": 0,
  "scenes": [
    {
      "name": "Sketchfab_Scene",
      "nodes": [
        0
      ]
    }
  ],
  "textures": [
    {
      "sampler": 0,
      "source": 0
    },
    {
      "sampler": 0,
      "source": 1
    },
    {
      "sampler": 0,
      "source": 2
    },
    {
      "sampler": 0,
      "source": 3
    },
    {
      "sampler": 0,
      "source": 4
    },
    {
      "sampler": 0,
      "source": 5
    },
    {
      "sampler": 0,
      "source": 6
    },
    {
      "sampler": 0,
      "source": 7
    },
    {
      "sampler": 0,
      "source": 8
    }
  ]
}
