{
  "accessors": [
    {
      "bufferView": 2,
      "componentType": 5126,
      "count": 436,
      "max": [
        44.00829315185547,
        24.00001335144043,
        97.93748474121094
      ],
      "min": [
        -37.49171447753906,
        -24.000015258789063,
        -73.49998474121094
      ],
      "type": "VEC3"
    },
    {
      "bufferView": 2,
      "byteOffset": 5232,
      "componentType": 5126,
      "count": 436,
      "max": [
        1.0,
        1.0,
        1.0
      ],
      "min": [
        -1.0,
        -1.0,
        -1.0
      ],
      "type": "VEC3"
    },
    {
      "bufferView": 3,
      "componentType": 5126,
      "count": 436,
      "max": [
        1.0,
        0.0006471152300946414,
        1.0,
        1.0
      ],
      "min": [
        -1.0,
        -1.0,
        -1.0,
        1.0
      ],
      "type": "VEC4"
    },
    {
      "bufferView": 1,
      "componentType": 5126,
      "count": 436,
      "max": [
        0.9939016699790955,
        0.9908314347267151
      ],
      "min": [
        0.0005000094533897936,
        0.0005000000237487257
      ],
      "type": "VEC2"
    },
    {
      "bufferView": 0,
      "componentType": 5125,
      "count": 984,
      "type": "SCALAR"
    },
    {
      "bufferView": 2,
      "byteOffset": 10464,
      "componentType": 5126,
      "count": 292,
      "max": [
        38.5087890625,
        24.750154495239258,
        11.50002670288086
      ],
      "min": [
        17.175434112548828,
        -19.499990463256836,
        -67.99949645996094
      ],
      "type": "VEC3"
    },
    {
      "bufferView": 2,
      "byteOffset": 13968,
      "componentType": 5126,
      "count": 292,
      "max": [
        1.0,
        1.0,
        1.0
      ],
      "min": [
        -1.0,
        -1.0,
        -1.0
      ],
      "type": "VEC3"
    },
    {
      "bufferView": 3,
      "byteOffset": 6976,
      "componentType": 5126,
      "count": 292,
      "max": [
        1.0,
        0.13081195950508118,
        1.0,
        1.0
      ],
      "min": [
        -1.0,
        -1.0,
        -1.0,
        -1.0
      ],
      "type": "VEC4"
    },
    {
      "bufferView": 1,
      "byteOffset": 3488,
      "componentType": 5126,
      "count": 292,
      "max": [
        0.9633097648620605,
        0.999500036239624
      ],
      "min": [
        0.0005000000237487257,
        0.0005000000237487257
      ],
      "type": "VEC2"
    },
    {
      "bufferView": 0,
      "byteOffset": 3936,
      "componentType": 5125,
      "count": 828,
      "type": "SCALAR"
    },
    {
      "bufferView": 2,
      "byteOffset": 17472,
      "componentType": 5126,
      "count": 292,
      "max": [
        38.5087890625,
        24.750154495239258,
        11.50002670288086
      ],
      "min": [
        17.175434112548828,
        -19.499990463256836,
        -67.99949645996094
      ],
      "type": "VEC3"
    },
    {
      "bufferView": 2,
      "byteOffset": 20976,
      "componentType": 5126,
      "count": 292,
      "max": [
        1.0,
        1.0,
        1.0
      ],
      "min": [
        -1.0,
        -1.0,
        -1.0
      ],
      "type": "VEC3"
    },
    {
      "bufferView": 3,
      "byteOffset": 11648,
      "componentType": 5126,
      "count": 292,
      "max": [
        1.0,
        0.13081195950508118,
        1.0,
        1.0
      ],
      "min": [
        -1.0,
        -1.0,
        -1.0,
        -1.0
      ],
      "type": "VEC4"
    },
    {
      "bufferView": 1,
      "byteOffset": 5824,
      "componentType": 5126,
      "count": 292,
      "max": [
        0.9633097648620605,
        0.999500036239624
      ],
      "min": [
        0.0005000000237487257,
        0.0005000000237487257
      ],
      "type": "VEC2"
    },
    {
      "bufferView": 0,
      "byteOffset": 7248,
      "componentType": 5125,
      "count": 828,
      "type": "SCALAR"
    },
    {
      "bufferView": 2,
      "byteOffset": 24480,
      "componentType": 5126,
      "count": 292,
      "max": [
        38.5087890625,
        24.750154495239258,
        11.50002670288086
      ],
      "min": [
        17.175434112548828,
        -19.499990463256836,
        -67.99949645996094
      ],
      "type": "VEC3"
    },
    {
      "bufferView": 2,
      "byteOffset": 27984,
      "componentType": 5126,
      "count": 292,
      "max": [
        1.0,
        1.0,
        1.0
      ],
      "min": [
        -1.0,
        -1.0,
        -1.0
      ],
      "type": "VEC3"
    },
    {
      "bufferView": 3,
      "byteOffset": 16320,
      "componentType": 5126,
      "count": 292,
      "max": [
        1.0,
        0.13081195950508118,
        1.0,
        1.0
      ],
      "min": [
        -1.0,
        -1.0,
        -1.0,
        -1.0
      ],
      "type": "VEC4"
    },
    {
      "bufferView": 1,
      "byteOffset": 8160,
      "componentType": 5126,
      "count": 292,
      "max": [
        0.9633097648620605,
        0.999500036239624
      ],
      "min": [
        0.0005000000237487257,
        0.0005000000237487257
      ],
      "type": "VEC2"
    },
    {
      "bufferView": 0,
      "byteOffset": 10560,
      "componentType": 5125,
      "count": 828,
      "type": "SCALAR"
    },
    {
      "bufferView": 2,
      "byteOffset": 31488,
      "componentType": 5126,
      "count": 292,
      "max": [
        38.5087890625,
        24.750154495239258,
        11.50002670288086
      ],
      "min": [
        17.175434112548828,
        -19.499990463256836,
        -67.99949645996094
      ],
      "type": "VEC3"
    },
    {
      "bufferView": 2,
      "byteOffset": 34992,
      "componentType": 5126,
      "count": 292,
      "max": [
        1.0,
        1.0,
        1.0
      ],
      "min": [
        -1.0,
        -1.0,
        -1.0
      ],
      "type": "VEC3"
    },
    {
      "bufferView": 3,
      "byteOffset": 20992,
      "componentType": 5126,
      "count": 292,
      "max": [
        1.0,
        0.13081195950508118,
        1.0,
        1.0
      ],
      "min": [
        -1.0,
        -1.0,
        -1.0,
        -1.0
      ],
      "type": "VEC4"
    },
    {
      "bufferView": 1,
      "byteOffset": 10496,
      "componentType": 5126,
      "count": 292,
      "max": [
        0.9633097648620605,
        0.999500036239624
      ],
      "min": [
        0.0005000000237487257,
        0.0005000000237487257
      ],
      "type": "VEC2"
    },
    {
      "bufferView": 0,
      "byteOffset": 13872,
      "componentType": 5125,
      "count": 828,
      "type": "SCALAR"
    },
    {
      "bufferView": 2,
      "byteOffset": 38496,
      "componentType": 5126,
      "count": 292,
      "max": [
        38.5087890625,
        24.750154495239258,
        11.50002670288086
      ],
      "min": [
        17.175434112548828,
        -19.499990463256836,
        -67.99949645996094
      ],
      "type": "VEC3"
    },
    {
      "bufferView": 2,
      "byteOffset": 42000,
      "componentType": 5126,
      "count": 292,
      "max": [
        1.0,
        1.0,
        1.0
      ],
      "min": [
        -1.0,
        -1.0,
        -1.0
      ],
      "type": "VEC3"
    },
    {
      "bufferView": 3,
      "byteOffset": 25664,
      "componentType": 5126,
      "count": 292,
      "max": [
        1.0,
        0.13081195950508118,
        1.0,
        1.0
      ],
      "min": [
        -1.0,
        -1.0,
        -1.0,
        -1.0
      ],
      "type": "VEC4"
    },
    {
      "bufferView": 1,
      "byteOffset": 12832,
      "componentType": 5126,
      "count": 292,
      "max": [
        0.9633097648620605,
        0.999500036239624
      ],
      "min": [
        0.0005000000237487257,
        0.0005000000237487257
      ],
      "type": "VEC2"
    },
    {
      "bufferView": 0,
      "byteOffset": 17184,
      "componentType": 5125,
      "count": 828,
      "type": "SCALAR"
    },
    {
      "bufferView": 2,
      "byteOffset": 45504,
      "componentType": 5126,
      "count": 292,
      "max": [
        38.5087890625,
        24.750154495239258,
        11.50002670288086
      ],
      "min": [
        17.175434112548828,
        -19.499990463256836,
        -67.99949645996094
      ],
      "type": "VEC3"
    },
    {
      "bufferView": 2,
      "byteOffset": 49008,
      "componentType": 5126,
      "count": 292,
      "max": [
        1.0,
        1.0,
        1.0
      ],
      "min": [
        -1.0,
        -1.0,
        -1.0
      ],
      "type": "VEC3"
    },
    {
      "bufferView": 3,
      "byteOffset": 30336,
      "componentType": 5126,
      "count": 292,
      "max": [
        1.0,
        0.13081195950508118,
        1.0,
        1.0
      ],
      "min": [
        -1.0,
        -1.0,
        -1.0,
        -1.0
      ],
      "type": "VEC4"
    },
    {
      "bufferView": 1,
      "byteOffset": 15168,
      "componentType": 5126,
      "count": 292,
      "max": [
        0.9633097648620605,
        0.999500036239624
      ],
      "min": [
        0.0005000000237487257,
        0.0005000000237487257
      ],
      "type": "VEC2"
    },
    {
      "bufferView": 0,
      "byteOffset": 20496,
      "componentType": 5125,
      "count": 828,
      "type": "SCALAR"
    }
  ],
  "asset": {
    "extras": {
      "author": "Saritasa (https://sketchfab.com/Saritasa)",
      "license": "CC-BY-4.0 (http://creativecommons.org/licenses/by/4.0/)",
      "source": "https://sketchfab.com/3d-models/game-ready-bedroom-shelf-9ac978037a0e4b84937f746960bb1ae5",
      "title": "Game Ready | Bedroom Shelf"
    },
    "generator": "Sketchfab-15.50.0",
    "version": "2.0"
  },
  "bufferViews": [
    {
      "buffer": 0,
      "byteLength": 23808,
      "name": "floatBufferViews",
      "target": 34963
    },
    {
      "buffer": 0,
      "byteLength": 17504,
      "byteOffset": 23808,
      "byteStride": 8,
      "name": "floatBufferViews",
      "target": 34962
    },
    {
      "buffer": 0,
      "byteLength": 52512,
      "byteOffset": 41312,
      "byteStride": 12,
      "name": "floatBufferViews",
      "target": 34962
    },
    {
      "buffer": 0,
      "byteLength": 35008,
      "byteOffset": 93824,
      "byteStride": 16,
      "name": "floatBufferViews",
      "target": 34962
    }
  ],
  "buffers": [
    {
      "byteLength": 128832,
      "uri": "scene.bin"
    }
  ],
  "extensionsUsed": [
    "KHR_materials_specular"
  ],
  "images": [
    {
      "uri": "textures/Bedroom_Shelf_baseColor.png"
    },
    {
      "uri": "textures/Bedroom_Shelf_metallicRoughness.png"
    },
    {
      "uri": "textures/Bedroom_Shelf_normal.png"
    }
  ],
  "materials": [
    {
      "doubleSided": true,
      "extensions": {
        "KHR_materials_specular": {
          "specularColorFactor": [
            1.0,
            1.0,
            1.0
          ],
          "specularFactor": 0.3
        }
      },
      "name": "Bedroom_Shelf",
      "normalTexture": {
        "index": 2
      },
      "occlusionTexture": {
        "index": 1
      },
      "pbrMetallicRoughness": {
        "baseColorTexture": {
          "index": 0
        },
        "metallicRoughnessTexture": {
          "index": 1
        }
      }
    }
  ],
  "meshes": [
    {
      "name": "Base_Bedroom_Shelf_0",
      "primitives": [
        {
          "attributes": {
            "NORMAL": 1,
            "POSITION": 0,
            "TANGENT": 2,
            "TEXCOORD_0": 3
          },
          "indices": 4,
          "material": 0,
          "mode": 4
        }
      ]
    },
    {
      "name": "Box_01_Bedroom_Shelf_0",
      "primitives": [
        {
          "attributes": {
            "NORMAL": 6,
            "POSITION": 5,
            "TANGENT": 7,
            "TEXCOORD_0": 8
          },
          "indices": 9,
          "material": 0,
          "mode": 4
        }
      ]
    },
    {
      "name": "Box_02_Bedroom_Shelf_0",
      "primitives": [
        {
          "attributes": {
            "NORMAL": 11,
            "POSITION": 10,
            "TANGENT": 12,
            "TEXCOORD_0": 13
          },
          "indices": 14,
          "material": 0,
          "mode": 4
        }
      ]
    },
    {
      "name": "Box_03_Bedroom_Shelf_0",
      "primitives": [
        {
          "attributes": {
            "NORMAL": 16,
            "POSITION": 15,
            "TANGENT": 17,
            "TEXCOORD_0": 18
          },
          "indices": 19,
          "material": 0,
          "mode": 4
        }
      ]
    },
    {
      "name": "Box_04_Bedroom_Shelf_0",
      "primitives": [
        {
          "attributes": {
            "NORMAL": 21,
            "POSITION": 20,
            "TANGENT": 22,
            "TEXCOORD_0": 23
          },
          "indices": 24,
          "material": 0,
          "mode": 4
        }
      ]
    },
    {
      "name": "Box_05_Bedroom_Shelf_0",
      "primitives": [
        {
          "attributes": {
            "NORMAL": 26,
            "POSITION": 25,
            "TANGENT": 27,
            "TEXCOORD_0": 28
          },
          "indices": 29,
          "material": 0,
          "mode": 4
        }
      ]
    },
    {
      "name": "Box_06_Bedroom_Shelf_0",
      "primitives": [
        {
          "attributes": {
            "NORMAL": 31,
            "POSITION": 30,
            "TANGENT": 32,
            "TEXCOORD_0": 33
          },
          "indices": 34,
          "material": 0,
          "mode": 4
        }
      ]
    }
  ],
  "nodes": [
    {
      "children": [
        1
      ],
      "matrix": [
        1.0,
        0.0,
        0.0,
        0.0,
        0.0,
        2.220446049250313e-16,
        -1.0,
        0.0,
        0.0,
        1.0,
        2.220446049250313e-16,
        0.0,
        0.0,
        0.0,
        0.0,
        1.0
      ],
      "name": "Sketchfab_model"
    },
    {
      "children": [
        2
      ],
      "matrix": [
        0.009999999776482582,
        0.0,
        0.0,
        0.0,
        0.0,
        0.0,
        0.009999999776482582,
        0.0,
        0.0,
        -0.009999999776482582,
        0.0,
        0.0,
        0.0,
        0.0,
        0.0,
        1.0
      ],
      "name": "1a22a45df5cd48e58d1c08a00e1e4ee4.fbx"
    },
    {
      "children": [
        3,
        6,
        9,
        12,
        15,
        18,
        21
      ],
      "name": "RootNode"
    },
    {
      "children": [
        4
      ],
      "matrix": [
        1.0,
        0.0,
        0.0,
        0.0,
        0.0,
        2.220446049250313e-16,
        -1.0,
        0.0,
        0.0,
        1.0,
        2.220446049250313e-16,
        0.0,
        -1.9073486328125e-06,
        40.749996185302734,
        8.58306884765625e-06,
        1.0
      ],
      "name": "Base"
    },
    {
      "children": [
        5
      ],
      "matrix": [
        6.123233995736766e-17,
        0.0,
        1.0,
        0.0,
        0.0,
        1.0,
        -0.0,
        0.0,
        -1.0,
        0.0,
        6.123233995736766e-17,
        0.0,
        12.21875,
        9.5367431640625e-07,
        -3.258289337158203,
        1.0
      ],
      "name": "Object_4"
    },
    {
      "mesh": 0,
      "name": "Base_Bedroom_Shelf_0"
    },
    {
      "children": [
        7
      ],
      "matrix": [
        1.0,
        0.0,
        0.0,
        0.0,
        0.0,
        2.220446049250313e-16,
        -1.0,
        0.0,
        0.0,
        1.0,
        2.220446049250313e-16,
        0.0,
        40.468475341796875,
        65.33380889892578,
        -2.125072479248047,
        1.0
      ],
      "name": "Box_01"
    },
    {
      "children": [
        8
      ],
      "matrix": [
        6.123233995736766e-17,
        0.0,
        1.0,
        0.0,
        0.0,
        1.0,
        -0.0,
        0.0,
        -1.0,
        0.0,
        6.123233995736766e-17,
        0.0,
        -28.249732971191406,
        -2.625082015991211,
        -27.84210968017578,
        1.0
      ],
      "name": "Object_7"
    },
    {
      "mesh": 1,
      "name": "Box_01_Bedroom_Shelf_0"
    },
    {
      "children": [
        10
      ],
      "matrix": [
        1.0,
        0.0,
        0.0,
        0.0,
        0.0,
        2.220446049250313e-16,
        -1.0,
        0.0,
        0.0,
        1.0,
        2.220446049250313e-16,
        0.0,
        40.468475341796875,
        44.00047302246094,
        -2.1250743865966797,
        1.0
      ],
      "name": "Box_02"
    },
    {
      "children": [
        11
      ],
      "matrix": [
        6.123233995736766e-17,
        0.0,
        1.0,
        0.0,
        0.0,
        1.0,
        -0.0,
        0.0,
        -1.0,
        0.0,
        6.123233995736766e-17,
        0.0,
        -28.249732971191406,
        -2.625082015991211,
        -27.84210968017578,
        1.0
      ],
      "name": "Object_10"
    },
    {
      "mesh": 2,
      "name": "Box_02_Bedroom_Shelf_0"
    },
    {
      "children": [
        13
      ],
      "matrix": [
        1.0,
        0.0,
        0.0,
        0.0,
        0.0,
        2.220446049250313e-16,
        -1.0,
        0.0,
        0.0,
        1.0,
        2.220446049250313e-16,
        0.0,
        40.468475341796875,
        22.66713523864746,
        -2.1250743865966797,
        1.0
      ],
      "name": "Box_03"
    },
    {
      "children": [
        14
      ],
      "matrix": [
        6.123233995736766e-17,
        0.0,
        1.0,
        0.0,
        0.0,
        1.0,
        -0.0,
        0.0,
        -1.0,
        0.0,
        6.123233995736766e-17,
        0.0,
        -28.249732971191406,
        -2.625082015991211,
        -27.84210968017578,
        1.0
      ],
      "name": "Object_13"
    },
    {
      "mesh": 3,
      "name": "Box_03_Bedroom_Shelf_0"
    },
    {
      "children": [
        16
      ],
      "matrix": [
        1.0,
        0.0,
        0.0,
        0.0,
        0.0,
        2.220446049250313e-16,
        -1.0,
        0.0,
        0.0,
        1.0,
        2.220446049250313e-16,
        0.0,
        -40.46849822998047,
        65.33383178710938,
        -2.125072479248047,
        1.0
      ],
      "name": "Box_04"
    },
    {
      "children": [
        17
      ],
      "matrix": [
        6.123233995736766e-17,
        0.0,
        1.0,
        0.0,
        0.0,
        1.0,
        -0.0,
        0.0,
        -1.0,
        0.0,
        6.123233995736766e-17,
        0.0,
        -28.249732971191406,
        -2.625082015991211,
        -27.84210968017578,
        1.0
      ],
      "name": "Object_16"
    },
    {
      "mesh": 4,
      "name": "Box_04_Bedroom_Shelf_0"
    },
    {
      "children": [
        19
      ],
      "matrix": [
        1.0,
        0.0,
        0.0,
        0.0,
        0.0,
        2.220446049250313e-16,
        -1.0,
        0.0,
        0.0,
        1.0,
        2.220446049250313e-16,
        0.0,
        -40.46849822998047,
        44.00049591064453,
        -2.1250743865966797,
        1.0
      ],
      "name": "Box_05"
    },
    {
      "children": [
        20
      ],
      "matrix": [
        6.123233995736766e-17,
        0.0,
        1.0,
        0.0,
        0.0,
        1.0,
        -0.0,
        0.0,
        -1.0,
        0.0,
        6.123233995736766e-17,
        0.0,
        -28.249732971191406,
        -2.625082015991211,
        -27.84210968017578,
        1.0
      ],
      "name": "Object_19"
    },
    {
      "mesh": 5,
      "name": "Box_05_Bedroom_Shelf_0"
    },
    {
      "children": [
        22
      ],
      "matrix": [
        1.0,
        0.0,
        0.0,
        0.0,
        0.0,
        2.220446049250313e-16,
        -1.0,
        0.0,
        0.0,
        1.0,
        2.220446049250313e-16,
        0.0,
        -40.46849822998047,
        22.667158126831055,
        -2.1250743865966797,
        1.0
      ],
      "name": "Box_06"
    },
    {
      "children": [
        23
      ],
      "matrix": [
        6.123233995736766e-17,
        0.0,
        1.0,
        0.0,
        0.0,
        1.0,
        -0.0,
        0.0,
        -1.0,
        0.0,
        6.123233995736766e-17,
        0.0,
        -28.249732971191406,
        -2.625082015991211,
        -27.84210968017578,
        1.0
      ],
      "name": "Object_22"
    },
    {
      "mesh": 6,
      "name": "Box_06_Bedroom_Shelf_0"
    }
  ],
  "samplers": [
    {
      "magFilter": 9729,
      "minFilter": 9987,
      "wrapS": 10497,
      "wrapT": 10497
    }
  ],
  "scene": 0,
  "scenes": [
    {
      "name": "Sketchfab_Scene",
      "nodes": [
        0
      ]
    }
  ],
  "textures": [
    {
      "sampler": 0,
      "source": 0
    },
    {
      "sampler": 0,
      "source": 1
    },
    {
      "sampler": 0,
      "source": 2
    }
  ]
}
